# xmcd
#
# Track frame offsets:
# 150
# 15411
# 31413
# 51237
# 65501
# 82062
# 100475
# 118114
# 132138
# 148827
# 165154
# 184824
# 196097
# 214457
# 241207
# 260569
# 275586
# 297549
# 310719
# 328863
#
# Disc length: 4737 seconds
#
#
# Revision: 0
# Processed by: cddbd v1.5.1PL2 Copyright (c) Steve Scherf et al.
# Submitted via: FreeRIP 2.944 
#
DISCID=32127f14
DTITLE=The Blues Band - The Blues Band Box - Disk 2
DYEAR=2005
DGENRE=Blues
TTITLE0=I Can't Be Satisfied
TTITLE1=Got To Love You Baby
TTITLE2=Back Door Man
TTITLE3=Seemed Like A Good Idea At The Time
TTITLE4=Rolling Log
TTITLE5=Might As Well Be Me
TTITLE6=So Bad
TTITLE7=Little Baby
TTITLE8=Sure Feels Good
TTITLE9=Grit Ain't Groceries
TTITLE10=What Do You Want
TTITLE11=Ain't It Tough
TTITLE12=Victim Of Love
TTITLE13=Blue Collar
TTITLE14=The Bad Boy
TTITLE15=Down In The Bottom
TTITLE16=Living For The Day
TTITLE17=Country Blues # 48
TTITLE18=I Can't Tell It All
TTITLE19=Down To The River
EXTD=BGO Records\nBGOBBCD1-2
EXTT0=Morganfield
EXTT1=Dixon
EXTT2=Dixon
EXTT3=McGuinness,Lyle,Jones
EXTT4=Trad. Arr. Kelly
EXTT5=Stonebridge,McGuinness
EXTT6=Jones,Fletcher,Flint,Kelly,McGuinness
EXTT7=Dixon
EXTT8=Fletcher,Jones
EXTT9=Turner
EXTT10=Fletcher,Jones
EXTT11=Stonebridge,McGuinness
EXTT12=McGuinness
EXTT13=Scott-Heron
EXTT14=Jones
EXTT15=Dixon
EXTT16=Jones
EXTT17=Kelly
EXTT18=Jones
EXTT19=Jones
PLAYORDER=
